<?xml version="1.0" encoding="UTF-8"?>
<svg width="26px" height="12px" viewBox="0 0 26 12" version="1.1" xmlns="http://www.w3.org/2000/svg" xmlns:xlink="http://www.w3.org/1999/xlink">
    <!-- Generator: Sketch 49.3 (51167) - http://www.bohemiancoding.com/sketch -->
    <title>svg/game_page/1400_arrow_right</title>
    <desc>Created with Sketch.</desc>
    <defs></defs>
    <g id="Page-1" stroke="none" stroke-width="1" fill="none" fill-rule="evenodd">
        <g id="png/ostrog_game_page_06" transform="translate(-1133.000000, -6257.000000)" fill="#017AEB">
            <g id="Просто-текст" transform="translate(465.000000, 6253.000000)">
                <path d="M690.603424,11 L669,11 C668.447715,11 668,10.5522847 668,10 C668,9.44771525 668.447715,9 669,9 L690.586,9 L687.280712,5.69471202 C686.90174,5.30233313 686.90716,4.67862724 687.292893,4.29289345 C687.678627,3.90715965 688.302333,3.90173981 688.694712,4.28071202 L693.715712,9.30171202 C694.106094,9.69221187 694.106094,10.3252122 693.715712,10.715712 L688.694712,15.736712 C688.302333,16.1156842 687.678627,16.1102644 687.292893,15.7245306 C686.90716,15.3387968 686.90174,14.7150909 687.280712,14.322712 L690.603424,11 Z" id="svg/game_page/1400_arrow_right"></path>
            </g>
        </g>
    </g>
</svg>
