<?xml version="1.0" encoding="UTF-8"?>
<svg width="17px" height="17px" viewBox="0 0 17 17" version="1.1" xmlns="http://www.w3.org/2000/svg" xmlns:xlink="http://www.w3.org/1999/xlink">
    <!-- Generator: sketchtool 51.2 (57519) - http://www.bohemiancoding.com/sketch -->
    <title>0456D69C-7FA8-407C-BA48-18A62F728A9E</title>
    <desc>Created with sketchtool.</desc>
    <defs></defs>
    <g id="1440" stroke="none" stroke-width="1" fill="none" fill-rule="evenodd">
        <g id="png_2.0/ostrog_2.0_game_page_01" transform="translate(-206.000000, -500.000000)">
            <g id="Популярное" transform="translate(190.000000, 331.000000)">
                <g id="Прохождение">
                    <g id="svg/game_page/map_navigation" transform="translate(16.000000, 169.000000)">
                        <path d="M8.5,1.5 C4.63400675,1.5 1.5,4.63400675 1.5,8.5 C1.5,12.3659932 4.63400675,15.5 8.5,15.5 C12.3659932,15.5 15.5,12.3659932 15.5,8.5 C15.5,4.63400675 12.3659932,1.5 8.5,1.5 Z" id="Rectangle-5-Copy-2" stroke="#fff" fill="rgb(0, 51, 132)"></path>
                        <path d="M10,6.94185704 C9.74878436,6.83554321 8.82038525,6.77674247 8.53084414,6.77674247 C8.2163652,6.77674247 7.26801585,6.81743048 7,6.94185704 L8.53084414,3.24183632e-14 C8.53224415,-0.000175002187 9.02196277,2.31377734 10,6.94185704 Z M7,10 C7.26906586,10.1254766 8.21505269,10.9812575 8.53084414,10.9812575 C8.82038525,10.9812575 9.74878436,10.1063138 10,10 L8.53084414,17 C8.52909411,16.999825 8.01881274,14.6664917 7,10 Z M10,10 C10.1147139,9.74064676 10.6332329,9.18022252 10.6332329,8.87886875 C10.6332329,8.57961501 10.1134014,7.19989776 10,6.94185704 L17,8.5 L10,10 Z M7,7 C6.88318604,7.26119076 6.42845536,8.57462745 6.42845536,8.87886875 C6.42845536,9.18337255 6.88292354,9.73828423 7,10 L0,8.5 C0,8.49842498 2.33333333,7.99842498 7,7 Z M2,2.5 L2.5,2 L5,4.5 L4.5,5 L2,2.5 Z M14.5,2 L15,2.5 L12.5,5 L12,4.5 L14.5,2 Z M15,14.5 L14.5,15 L12,12.5 L12.5,12 L15,14.5 Z M4.5,12 L5,12.5 L2.5,15 L2,14.5 L4.5,12 Z" id="Combined-Shape" fill="#fff"></path>
                    </g>
                </g>
            </g>
        </g>
    </g>
</svg>