<?xml version="1.0" encoding="UTF-8"?>
<svg width="16px" height="17px" viewBox="0 0 16 17" version="1.1" xmlns="http://www.w3.org/2000/svg" xmlns:xlink="http://www.w3.org/1999/xlink">
    <!-- Generator: Sketch 49.3 (51167) - http://www.bohemiancoding.com/sketch -->
    <title>svg/game_page/unlock copy_active</title>
    <desc>Created with Sketch.</desc>
    <defs></defs>
    <g id="Page-1" stroke="none" stroke-width="1" fill="none" fill-rule="evenodd">
        <g id="png/ostrog_new_oglavlenie_07" transform="translate(-214.000000, -2834.000000)">
            <g id="Иконки" transform="translate(190.000000, 2398.000000)">
                <g id="Материал" transform="translate(19.000000, 132.000000)">
                    <g id="svg/game_page/unlock-copy_active" transform="translate(12.525126, 312.439340) rotate(45.000000) translate(-12.525126, -312.439340) translate(4.025126, 303.939340)">
                        <path d="M8.74695167,0.0753787975 L8.74695167,0.0753787975 C13.1652297,0.0753787975 16.7469517,3.6571008 16.7469517,8.0753788 L16.7469517,8.0753788 C16.7469517,12.4936568 13.1652297,16.0753788 8.74695167,16.0753788 L8.74695167,16.0753788 C4.32867367,16.0753788 0.746951673,12.4936568 0.746951673,8.0753788 L0.746951673,8.0753788 C0.746951673,3.6571008 4.32867367,0.0753787975 8.74695167,0.0753787975 Z" id="Rectangle-5-Copy-6" fill="#FFFFFF"></path>
                        <path d="M8.88603897,4.42157288 L10.886039,4.42157288 L10.886039,5.42157288 L8.88603897,5.42157288 L8.88603897,9.47158193 C10.0271591,9.7032171 10.886039,10.7120939 10.886039,11.9215729 C10.886039,13.3022847 9.76675084,14.4215729 8.38603897,14.4215729 C7.00532709,14.4215729 5.88603897,13.3022847 5.88603897,11.9215729 C5.88603897,10.7120939 6.74491881,9.7032171 7.88603897,9.47158193 L7.88603897,1.42157288 L8.88603897,1.42157288 L8.88603897,2.42157288 L11.886039,2.42157288 L11.886039,3.42157288 L8.88603897,3.42157288 L8.88603897,4.42157288 Z M8.38603897,13.4215729 C9.21446609,13.4215729 9.88603897,12.75 9.88603897,11.9215729 C9.88603897,11.0931458 9.21446609,10.4215729 8.38603897,10.4215729 C7.55761184,10.4215729 6.88603897,11.0931458 6.88603897,11.9215729 C6.88603897,12.75 7.55761184,13.4215729 8.38603897,13.4215729 Z" id="Combined-Shape" fill="#003384"></path>
                    </g>
                </g>
            </g>
        </g>
    </g>
</svg>