<?xml version="1.0" encoding="UTF-8"?>
<svg width="17px" height="21px" viewBox="0 0 17 21" version="1.1" xmlns="http://www.w3.org/2000/svg" xmlns:xlink="http://www.w3.org/1999/xlink">
    <!-- Generator: Sketch 49.3 (51167) - http://www.bohemiancoding.com/sketch -->
    <title>svg/game_page/map_prohozhdenie copy_active</title>
    <desc>Created with Sketch.</desc>
    <defs>
        <path d="M10.05442,9.82847314 C10.1124586,9.9342781 10.2232483,10 10.3435687,10 C10.4638891,10 10.5746788,9.9342781 10.6327174,9.82847314 L13.2324971,5.11482806 C13.8003062,4.07740739 13.8118386,2.82322717 13.2632032,1.77546097 C12.7666164,0.788229235 11.8009171,0.125133921 10.7043649,0.0184401281 C10.4576168,-0.00614670937 10.2090499,-0.00614670937 9.96230178,0.0184401281 C8.86574954,0.125133921 7.90005029,0.788229235 7.40346346,1.77546097 C6.85482805,2.82322717 6.86636045,4.07740739 7.43416952,5.11482806 L10.05442,9.82847314 Z M10.3512452,2.71048375 C10.7370508,2.71048375 11.0498081,3.02445172 11.0498081,3.41175084 C11.0498081,3.79904996 10.7370508,4.11301793 10.3512452,4.11301793 C9.96543959,4.11301793 9.65268234,3.79904996 9.65268234,3.41175084 C9.65268234,3.02445172 9.96543959,2.71048375 10.3512452,2.71048375 Z" id="path-1"></path>
    </defs>
    <g id="Page-1" stroke="none" stroke-width="1" fill="none" fill-rule="evenodd">
        <g id="png/ostrog_new_oglavlenie_07" transform="translate(-213.000000, -2807.000000)">
            <g id="Иконки" transform="translate(190.000000, 2398.000000)">
                <g id="Материал" transform="translate(19.000000, 132.000000)">
                    <g id="svg/game_page/map_prohozhdenie-copy_active" transform="translate(4.000000, 278.000000)">
                        <path d="M8.6862915,4 L8.6862915,4 C13.1045695,4 16.6862915,7.581722 16.6862915,12 L16.6862915,12 C16.6862915,16.418278 13.1045695,20 8.6862915,20 L8.6862915,20 C4.2680135,20 0.686291501,16.418278 0.686291501,12 L0.686291501,12 C0.686291501,7.581722 4.2680135,4 8.6862915,4 Z" id="Rectangle-5-Copy-6" fill="#ffffff"></path>
                        <path d="M5.61314431,12.234616 C4.87881388,12.2675779 4.18537125,11.9031908 3.80813046,11.2861253 C3.43088967,10.6690598 3.43088967,10.1170655 3.80813046,9.5 C4.18537125,8.88293453 4.87881388,8.51854735 5.61314431,8.55150926 L5.61314431,8.59636321 C5.75004238,9.11492015 6.25983343,9.45302419 6.80306125,9.38554092 C7.34628907,9.31805764 7.75346763,8.8660417 7.75346763,8.33047839 C7.75346763,7.79491509 7.34628907,7.34289915 6.80306125,7.27541587 C6.25983343,7.2079326 5.75004238,7.54603664 5.61314431,8.06459358 L5.61314431,8.01973964 C4.68861044,7.99373695 3.82269716,8.46128236 3.3525845,9.24031725 C2.88247183,10.0193521 2.88247183,10.7688263 3.3525845,11.5478612 C3.82269716,12.3268961 4.68861044,12.7944415 5.61314431,12.7684388 L11,12.770492 C12.0658779,12.8183361 13.2228532,13.4605453 13.2228532,14.5041063 C13.2228532,15.5476674 12.4239741,16.4224394 11.3580962,16.4702835 L6.41208921,16.4682304 C6.27519113,15.9496734 5.76540008,15.6115694 5.22217226,15.6790527 C4.67894444,15.7465359 4.27176588,16.1985519 4.27176588,16.7341152 C4.27176588,17.2696785 4.67894444,17.7216944 5.22217226,17.7891777 C5.76540008,17.856661 6.27519113,17.5185569 6.41208921,17 L11.3580962,17.0020532 C12.7609703,17.0020532 13.8580962,15.8741103 13.8580962,14.5020532 C13.8580962,13.1299961 12.4028741,12.234616 11,12.234616 L5.61314431,12.234616 Z" id="Shape" fill="rgb(0, 51, 132)" fill-rule="nonzero" opacity="0.900000036"></path>
                        <g id="Shape" fill-rule="nonzero">
                            <use fill="#003384" fill-rule="evenodd" xlink:href="#path-1"></use>
                            <path stroke="#FFFFFF" stroke-width="1" d="M9.61687216,10.0704507 L6.99556756,5.35488706 C6.34746169,4.17075939 6.3343005,2.73944414 6.95678884,1.55077944 C7.53041733,0.410386258 8.64637265,-0.35588207 9.91272555,-0.479095999 C10.1924428,-0.506968 10.4742238,-0.506968 10.7527859,-0.479209756 C12.020294,-0.35588207 13.1362493,0.410386258 13.7061528,1.543522 C14.3323662,2.73944414 14.319205,4.17075939 13.6703195,5.35630605 L11.0710947,10.0689422 C10.9253435,10.3346479 10.6466037,10.5 10.3435687,10.5 C10.0411075,10.5 9.76284966,10.3352735 9.61687216,10.0704507 Z M10.3512452,3.21048375 C10.2420153,3.21048375 10.1526823,3.30016257 10.1526823,3.41175084 C10.1526823,3.52333911 10.2420153,3.61301793 10.3512452,3.61301793 C10.4604751,3.61301793 10.5498081,3.52333911 10.5498081,3.41175084 C10.5498081,3.30016257 10.4604751,3.21048375 10.3512452,3.21048375 Z"></path>
                        </g>
                    </g>
                </g>
            </g>
        </g>
    </g>
</svg>