<?xml version="1.0" encoding="UTF-8"?>
<svg width="93px" height="63px" viewBox="0 0 93 63" version="1.1" xmlns="http://www.w3.org/2000/svg" xmlns:xlink="http://www.w3.org/1999/xlink">
    <!-- Generator: Sketch 53.1 (72631) - https://sketchapp.com -->
    <title>93_63</title>
    <desc>Created with Sketch.</desc>
    <g id="93_63" stroke="none" stroke-width="1" fill="none" fill-rule="evenodd">
        <g id="Logo_CBR" transform="translate(2.000000, 20.000000)" fill="#FFFFFF">
            <path d="M4.70208099,5.51470336 C4.53244052,5.61085964 4.35025431,5.68513088 4.16026005,5.73558568 C3.91148758,5.79810188 3.65482228,5.82714193 3.39767052,5.82186783 C3.10542937,5.82768455 2.81560612,5.7701034 2.549948,5.65344506 C2.30982777,5.54462279 2.09995864,5.38309148 1.9374234,5.18199936 C1.7656183,4.96419959 1.64123577,4.71563313 1.57164015,4.45101693 C1.48792769,4.14158275 1.44741391,3.8229049 1.45115533,3.50329371 C1.39802933,2.87780569 1.57682875,2.25439584 1.95618151,1.74244746 C2.28800179,1.36651106 2.78198125,1.15730997 3.29594382,1.17505599 C3.55274096,1.17227866 3.80938017,1.18843245 4.06358361,1.223374 C4.25260152,1.24914218 4.43677186,1.30074799 4.61045481,1.37661111 L4.88100455,0.263226158 C4.65866277,0.181650662 4.42866819,0.120629608 4.19416895,0.080998243 C3.85782269,0.0252472869 3.51677909,-0.000403064373 3.175459,0.00437968768 C2.79326579,0.00553796055 2.41374892,0.0654331414 2.05141502,0.181775802 C1.67118535,0.303592362 1.32346478,0.503623918 1.03270507,0.767804212 C0.706764141,1.07061351 0.453461725,1.43754631 0.29031659,1.84322502 C0.0834981814,2.37249408 -0.0144929427,2.9350078 0.00173020224,3.49984243 C-0.0121544834,4.04927108 0.0742747391,4.59680381 0.257129155,5.11780543 C0.402107415,5.52258854 0.636624295,5.89269689 0.944686224,6.20288984 C1.22380887,6.47603643 1.56571428,6.68308351 1.94319512,6.8075552 C2.32916089,6.93354847 2.7344644,6.9967771 3.14227157,6.99461491 C3.4842964,6.99513057 3.82553317,6.96322288 4.16098151,6.89935941 C4.45378213,6.85100297 4.73259112,6.74397427 4.97912392,6.58529236 L4.70208099,5.51470336 Z M5.33408518,4.65257204 L7.85344434,4.65257204 L7.85344434,3.54816044 L5.33408518,3.54816044 L5.33408518,4.65257204 Z M13.733392,5.51677413 C13.5637515,5.61293042 13.3815653,5.68720166 13.191571,5.73765645 C12.9427986,5.80017266 12.6861333,5.8292127 12.4289815,5.82393861 C12.1367404,5.82975532 11.8469171,5.77217418 11.581259,5.65551584 C11.3411388,5.54669356 11.1312696,5.38516226 10.9687344,5.18407013 C10.7969293,4.96627036 10.6725468,4.7177039 10.6029511,4.4530877 C10.5192387,4.14365352 10.4787249,3.82497567 10.4824663,3.50536449 C10.4293403,2.87987646 10.6081397,2.25646662 10.9874925,1.74451823 C11.3193128,1.36858183 11.8132922,1.15938075 12.3272548,1.17712676 C12.584052,1.17434943 12.8406912,1.19050323 13.0948946,1.22544477 C13.2839125,1.25121295 13.4680829,1.30281876 13.6417658,1.37868188 L13.913037,0.26529693 C13.6904141,0.183819152 13.46019,0.122801308 13.2254799,0.0830690148 C12.8891337,0.0273180587 12.5480901,0.00166770739 12.20677,0.00645045944 C11.8245768,0.00760873232 11.4450599,0.0675039132 11.082726,0.183846574 C10.7024964,0.305663133 10.3547758,0.505694689 10.0640161,0.769874984 C9.73807514,1.07268428 9.48477272,1.43961708 9.32162759,1.84529579 C9.11480918,2.37456485 9.01681806,2.93707857 9.0330412,3.5019132 C9.01915652,4.05134185 9.10558574,4.59887458 9.28844015,5.11987621 C9.43341841,5.52465932 9.66793529,5.89476766 9.97599722,6.20496061 C10.2551199,6.4781072 10.5970253,6.68515428 10.9745061,6.80962597 C11.3604719,6.93561925 11.7657754,6.99884787 12.1735826,6.99668568 C12.5156074,6.99720134 12.8568442,6.96529365 13.1922925,6.90143018 C13.4850931,6.85307374 13.7639021,6.74604504 14.0104349,6.58736313 L13.733392,5.51677413 Z M14.3653962,4.65257204 L16.8847553,4.65257204 L16.8847553,3.54816044 L14.3653962,3.54816044 L14.3653962,4.65257204 Z M22.764703,5.51677413 C22.5950625,5.61293042 22.4128763,5.68720166 22.222882,5.73765645 C21.9741096,5.80017266 21.7174443,5.8292127 21.4602925,5.82393861 C21.1680514,5.82975532 20.8782281,5.77217418 20.61257,5.65551584 C20.3724498,5.54669356 20.1625806,5.38516226 20.0000454,5.18407013 C19.8282403,4.96627036 19.7038578,4.7177039 19.6342621,4.4530877 C19.5505497,4.14365352 19.5100359,3.82497567 19.5137773,3.50536449 C19.4606513,2.87987646 19.6394507,2.25646662 20.0188035,1.74451823 C20.3506238,1.36858183 20.8446032,1.15938075 21.3585658,1.17712676 C21.615363,1.17434943 21.8720022,1.19050323 22.1262056,1.22544477 C22.3152235,1.25121295 22.4993939,1.30281876 22.6730768,1.37868188 L22.944348,0.26529693 C22.7217251,0.183819152 22.491501,0.122801308 22.2567909,0.0830690148 C21.9204447,0.0273180587 21.5794011,0.00166770739 21.238081,0.00645045944 C20.8558878,0.00760873232 20.4763709,0.0675039132 20.114037,0.183846574 C19.7338074,0.305663133 19.3860868,0.505694689 19.0953271,0.769874984 C18.7693861,1.07268428 18.5160837,1.43961708 18.3529386,1.84529579 C18.1461202,2.37456485 18.0481291,2.93707857 18.0643522,3.5019132 C18.0504675,4.05134185 18.1368967,4.59887458 18.3197512,5.11987621 C18.4647294,5.52465932 18.6992463,5.89476766 19.0073082,6.20496061 C19.2864309,6.4781072 19.6283363,6.68515428 20.0058171,6.80962597 C20.3917829,6.93561925 20.7970864,6.99884787 21.2048936,6.99668568 C21.5469184,6.99720134 21.8881552,6.96529365 22.2236035,6.90143018 C22.5164041,6.85307374 22.7952131,6.74604504 23.0417459,6.58736313 L22.764703,5.51677413 Z M23.7747553,4.93143598 C23.8798975,5.33021419 24.0656876,5.70541904 24.3216265,6.03584758 C24.5648484,6.34254997 24.8839176,6.58662132 25.2501533,6.7461223 C25.6673329,6.92092224 26.1194569,7.00621037 26.5747648,6.99599543 C27.4170354,7.04096802 28.2325448,6.70515877 28.7774004,6.08899739 C29.3424696,5.33906065 29.6174144,4.42448116 29.5551407,3.5019132 C29.5604829,3.01964646 29.4995996,2.53879702 29.3740527,2.07170017 C29.2684735,1.67217994 29.0808568,1.29675314 28.8221313,0.967288559 C28.5762644,0.661392618 28.256036,0.417571196 27.8892758,0.257013843 C27.4754316,0.0828921383 27.0267488,-0.00239719827 26.5747648,0.0071407167 C25.7306176,-0.0401481664 24.9125408,0.295947649 24.3670789,0.91413875 C23.8045667,1.66532537 23.5315125,2.57979626 23.5943889,3.5019132 C23.5903048,3.98314754 23.652156,4.4628189 23.7783627,4.92867495 L23.7747553,4.93143598 Z M25.4427847,1.7369254 C25.8650939,1.1761604 26.6615681,1.01059433 27.2890161,1.35314236 C27.4878838,1.47656751 27.6503395,1.64673059 27.7608548,1.84736656 C27.8889178,2.07911285 27.9784902,2.32852116 28.0263543,2.58663208 C28.0852814,2.88726287 28.1140303,3.1925954 28.1122088,3.49846191 C28.162685,4.11533321 28.0229675,4.73282407 27.7103522,5.27449383 C27.4571096,5.63242429 27.0283193,5.83950379 26.5769292,5.82186783 C26.3336464,5.8281885 26.0934806,5.76835079 25.8843218,5.64930352 C25.6856073,5.52895559 25.5216365,5.36282172 25.4074328,5.16612344 C25.2745757,4.93721807 25.1814951,4.68917191 25.1318328,4.43168972 C25.0691515,4.12336115 25.0389393,3.80979669 25.0416496,3.49570088 C24.9952215,2.88469485 25.1345329,2.2738845 25.4427847,1.7369254 Z M36.2416873,6.86139526 L37.6168014,6.86139526 L37.6168014,0.138289595 L36.3722726,0.138289595 L34.5960234,3.19129744 L34.2951721,3.97888096 L34.25477,3.97888096 L33.9236171,3.21062464 L32.0478056,0.138289595 L30.7931763,0.138289595 L30.7931763,6.86139526 L32.0983082,6.86139526 L32.0983082,3.36386175 L31.8970192,2.03925808 L31.9475218,2.03925808 L32.389059,3.10501528 L33.9647407,5.62031272 L34.4062779,5.62031272 L35.9011554,3.11467888 L36.3340349,2.03925808 L36.3946381,2.03925808 L36.2438517,3.37352535 L36.2438517,6.86139526 L36.2416873,6.86139526 Z M43.5768318,0.880316145 C43.4314469,0.664367141 43.2291329,0.488899139 42.99028,0.371596547 C42.7285549,0.244570977 42.4472098,0.158574845 42.1569868,0.11689162 C41.8400584,0.0694290778 41.5196635,0.0463465941 41.19888,0.0478658948 C41.006489,0.0478658948 40.8107313,0.0510870953 40.6116067,0.0575294963 C40.4124821,0.0639718974 40.2200911,0.073635499 40.0344339,0.086520301 C39.8475742,0.0996351889 39.6737009,0.115511106 39.5077637,0.134148052 C39.3418266,0.152784998 39.1982548,0.172802458 39.0712768,0.192129661 L39.0712768,6.81859931 C39.2614821,6.85943757 39.4542893,6.88826052 39.6484496,6.90488147 C39.8591177,6.92420867 40.0664189,6.93870407 40.2703533,6.94836768 C40.4742876,6.95803128 40.6649951,6.96286308 40.8424758,6.96286308 L41.2753554,6.96286308 C41.6168566,6.96356069 41.9571998,6.924857 42.289015,6.84759012 C42.6005422,6.77729763 42.8974021,6.65710903 43.1670391,6.49210763 C43.4214877,6.33504823 43.6329878,6.12204704 43.7838925,5.8708761 C43.9436057,5.59700026 44.0233498,5.28705345 44.0147616,4.97354167 C44.0202423,4.74137296 43.9811153,4.51021494 43.8993271,4.2915675 C43.8294181,4.10978643 43.7219459,3.9433441 43.583325,3.80217511 C43.4523298,3.66612889 43.2944008,3.55632516 43.1187009,3.47913471 C42.9362118,3.40190545 42.744208,3.34716712 42.5472999,3.316234 L42.5472999,3.25825239 C42.7547769,3.21516543 42.9520012,3.13533381 43.1288014,3.02287466 C43.2814581,2.92490439 43.4142059,2.80117339 43.5205574,2.65772858 C43.6211891,2.51954629 43.6945437,2.3649132 43.7369972,2.20146853 C43.7798734,2.0382798 43.80168,1.870678 43.8019292,1.70241254 C43.8123242,1.41236856 43.7340994,1.125718 43.5768318,0.877555116 L43.5768318,0.880316145 Z M41.0517009,5.85016838 L40.7912517,5.84050478 C40.7068402,5.84050478 40.6289218,5.83222169 40.5553323,5.82600938 C40.5006309,5.82342681 40.4465297,5.81391021 40.3944454,5.79770883 L40.3944454,3.96231479 L41.1274548,3.96231479 C41.3017462,3.96234979 41.4758966,3.97179833 41.6490747,3.99061534 C41.8129488,4.00689587 41.9726108,4.05034008 42.1209135,4.11900319 C42.2577557,4.18280118 42.3750548,4.2793337 42.4614454,4.39924763 C42.5565158,4.54744122 42.6020718,4.71985619 42.5920307,4.89347183 C42.596098,5.0430231 42.5579663,5.19085939 42.4816465,5.32143132 C42.4099378,5.44058191 42.3113475,5.5429251 42.1930601,5.62100297 C42.0663508,5.70290665 41.9253779,5.76251336 41.7767742,5.79701857 C41.6175693,5.835433 41.4539741,5.85467898 41.2897847,5.85430993 C41.2219669,5.85200907 41.1430866,5.84924804 41.0531438,5.84602684 L41.0517009,5.85016838 Z M40.3944454,2.96489306 L40.3944454,1.18402934 C40.5075609,1.16855659 40.6214876,1.15910852 40.7356988,1.15572879 C40.879992,1.14951647 41.0430433,1.14606519 41.2176381,1.14606519 C41.3657309,1.14555405 41.5135506,1.15826385 41.6591752,1.18402934 C41.7917433,1.20673174 41.9190255,1.25184272 42.035059,1.31724899 C42.1449181,1.38010733 42.2364713,1.46841232 42.30128,1.57402469 C42.3724254,1.69915915 42.4070644,1.8403047 42.4015637,1.98265698 C42.4096754,2.21202081 42.3079273,2.43238529 42.1252423,2.58111002 C41.9336351,2.7386419 41.7097796,2.85618974 41.4679868,2.92623865 C41.3666221,2.94090036 41.2645081,2.95034746 41.1620852,2.9545392 C41.037993,2.96075151 40.9297732,2.9642028 40.8359826,2.9642028 L40.3944454,2.9642028 L40.3944454,2.96489306 Z M45.2109522,4.92867495 C45.316393,5.32735051 45.5021566,5.70250196 45.7578234,6.03308655 C46.0013703,6.33948561 46.3203522,6.58349021 46.6863501,6.74336127 C47.1035297,6.91816122 47.5556537,7.00344934 48.0109616,6.9932344 C48.8532727,7.03842539 49.6688796,6.70257596 50.2135972,6.08623636 C50.7786665,5.33629962 51.0536113,4.42172013 50.9913376,3.49915217 C50.9965423,3.01693538 50.9359076,2.5361328 50.8109711,2.06893914 C50.7053919,1.66941891 50.5177751,1.29399211 50.2590496,0.96452753 C50.0127504,0.65875953 49.6923263,0.414977663 49.3254726,0.254252814 C48.9116496,0.0800667334 48.4629518,-0.00522546824 48.0109616,0.00437968768 C47.1668346,-0.0427990564 46.3488073,0.293276469 45.8032758,0.911377721 C45.2413077,1.6628157 44.9683102,2.5770968 45.0305857,3.49915217 C45.0250711,3.98115775 45.0857113,4.4617707 45.2109522,4.92867495 L45.2109522,4.92867495 Z M46.8768171,1.73623514 C47.2991264,1.17547014 48.0956006,1.00990407 48.7230486,1.35245211 C48.9219163,1.47587725 49.084372,1.64604034 49.1948873,1.8466763 C49.32289,2.07851097 49.4126893,2.32787364 49.4611082,2.58594182 C49.5194264,2.88664313 49.5479306,3.19194197 49.5462412,3.49777166 C49.5965115,4.11454698 49.4570719,4.7319179 49.1451061,5.27380357 C48.8916314,5.63184501 48.4625735,5.83892194 48.0109616,5.82117758 C47.7676789,5.82749825 47.5275131,5.76766053 47.3183543,5.64861326 C47.1196857,5.52842888 46.9559116,5.36224289 46.8421868,5.16543319 C46.7088195,4.93668322 46.6154789,4.68859347 46.5658653,4.43099947 C46.5035404,4.12262223 46.4733315,3.80909194 46.4756821,3.49501063 C46.4298346,2.88409945 46.5696447,2.27353961 46.8782601,1.7369254 L46.8768171,1.73623514 Z" id="C-c-combo"></path>
            <path d="M9.02718756,11.6897106 C8.73528625,11.2530386 8.32948266,10.8982525 7.85056543,10.661013 C7.32643174,10.4044518 6.76304347,10.2307931 6.18190133,10.1466642 C5.54705126,10.048836 4.90510729,10.0002525 4.26222451,10.0013796 C3.87334495,10.0013796 3.48137528,10.0078061 3.08631549,10.020659 C2.6912557,10.033512 2.30594166,10.053021 1.93037339,10.079186 C1.55480511,10.105351 1.20300698,10.137713 0.874978998,10.1762719 C0.546951012,10.2148309 0.255291346,10.2536193 0,10.2926373 L0,23.6863628 C0.380937135,23.7690124 0.767080824,23.8274354 1.1559421,23.8612552 C1.57809986,23.9002732 1.99360197,23.9294219 2.40244845,23.9487014 C2.81129492,23.9679808 3.19328114,23.9776206 3.54840709,23.9776206 L4.42338608,23.9776206 C5.10735143,23.9791408 5.7890101,23.9009996 6.45359408,23.7448898 C7.07774051,23.6029778 7.67253676,23.3601673 8.21282243,23.0267294 C8.72191814,22.7099886 9.14574264,22.2809317 9.44934531,21.7749407 C9.76873854,21.2207326 9.92831457,20.5939425 9.91143691,19.9599161 C9.92192174,19.4911252 9.84362108,19.0244288 9.68039111,18.5828108 C9.53922593,18.2155666 9.32399038,17.8790209 9.04715448,17.5926722 C8.77906905,17.3210858 8.457938,17.1034484 8.10229126,16.9523182 C7.73627469,16.7960611 7.35121873,16.6852387 6.95633262,16.6225015 L6.95633262,16.5040705 C7.37222874,16.4168415 7.76762995,16.2554866 8.12225818,16.0282806 C8.42777449,15.8303056 8.69355119,15.580445 8.90667293,15.2908408 C9.10821652,15.0117934 9.25471523,14.6992389 9.33881415,14.3688688 C9.42557586,14.038923 9.4696489,13.6998656 9.47002534,13.3594507 C9.49353327,12.773151 9.33965231,12.1929358 9.02718756,11.6897106 Z M3.97056484,21.7356932 L3.44785938,21.7164138 C3.28004216,21.7099873 3.12268381,21.7003475 2.97578432,21.6874946 C2.86732452,21.6816373 2.76014303,21.6619577 2.65702669,21.6289676 L2.65702669,17.9211118 L4.12459537,17.9211118 C4.47391594,17.9213577 4.82294289,17.9406679 5.1700063,17.9789502 C5.49817936,18.011859 5.81791019,18.0996993 6.11486953,18.2385345 C6.38929416,18.3675203 6.62459954,18.562707 6.79802346,18.8052133 C6.98807617,19.10495 7.07934208,19.4533627 7.05973275,19.8043032 C7.06758836,20.1064911 6.99124133,20.4051697 6.83867041,20.6691252 C6.69319707,20.9101984 6.49393099,21.116952 6.25535108,21.274363 C6.00142683,21.4399196 5.71885944,21.5602485 5.42101902,21.6296561 C5.10228547,21.7069145 4.77482728,21.7455412 4.44620542,21.7446444 C4.3102402,21.7446444 4.15169334,21.7416607 3.97056484,21.7356932 Z M2.65702669,15.9022755 L2.65702669,12.3100965 C2.88347939,12.2789005 3.11154564,12.2598215 3.34018062,12.2529466 C3.63493041,12.2400936 3.95654046,12.2336672 4.30501077,12.2336672 C4.60184075,12.2327298 4.89811336,12.2585477 5.18997322,12.310785 C5.455766,12.3562936 5.71101665,12.4472306 5.94372449,12.5793206 C6.16361022,12.7061532 6.3468216,12.8844776 6.47641341,13.0978007 C6.61948461,13.350636 6.68897585,13.6361624 6.67750883,13.9240638 C6.69363569,14.3875351 6.49020488,14.8328537 6.12485299,15.1338508 C5.73981481,15.4487868 5.29134553,15.6832366 4.80774931,15.8224034 C4.60453377,15.8521765 4.3998209,15.8714832 4.1944796,15.8802418 C3.94631929,15.8930948 3.72858478,15.8995213 3.54127604,15.8995213 L2.65702669,15.8995213 L2.65702669,15.9022755 Z M12.3837696,23.7834487 L15.1363522,23.7834487 L15.1363522,18.2123695 L16.5853802,18.4616256 L19.7822269,23.7806945 L22.9583935,23.7806945 L19.7415799,18.5993361 L18.7567829,17.9975411 C19.6184228,17.750439 20.3735142,17.2395656 20.9082186,16.5419409 C21.4746033,15.744319 21.7567042,14.7903555 21.7118872,13.8242237 C21.7365466,13.1722055 21.5804693,12.5256533 21.259779,11.9513606 C20.9712563,11.4657334 20.5566248,11.0611057 20.056772,10.7773784 C19.5265727,10.4828303 18.9475236,10.2792201 18.3453217,10.1755834 C17.7058616,10.0588397 17.0564678,10.0002857 16.4056779,10.000691 C16.1242394,10.000691 15.8152276,10.0071175 15.4786423,10.0199705 C15.1420571,10.0328235 14.7969146,10.0523325 14.4432149,10.0784975 C14.0880889,10.1046625 13.732963,10.1402377 13.377837,10.1852231 C13.0227111,10.2302086 12.689929,10.2786368 12.379491,10.3305077 L12.379491,23.7834487 L12.3837696,23.7834487 Z M18.2540443,12.8643813 C18.6400238,13.2189279 18.8458834,13.718877 18.8173967,14.2325354 C18.880547,14.8628843 18.6261065,15.48413 18.1335297,15.9022755 C17.5987851,16.2619644 16.955249,16.439536 16.3044171,16.4069846 L15.1363522,16.4069846 L15.1363522,12.4663979 C15.3441226,12.4196346 15.5563108,12.3935628 15.7695889,12.3885915 C16.0438963,12.3757385 16.322007,12.369312 16.6039209,12.369312 C17.1988899,12.3279105 17.7881431,12.504698 18.2540443,12.8643813 L18.2540443,12.8643813 Z M24.9886015,23.7834487 L33.4324697,23.7834487 L33.4324697,21.4148277 L27.7433235,21.4148277 L27.7433235,18.0953156 L32.8291835,18.0953156 L32.8291835,15.7273831 L27.7433235,15.7273831 L27.7433235,12.5600411 L33.331922,12.5600411 L33.331922,10.1948629 L24.9886015,10.1948629 L24.9886015,23.7834487 Z M44.0470275,23.7834487 L46.9408048,23.7834487 L41.8777642,10.0977769 L39.8454169,10.0977769 L34.7788107,23.7827602 L37.5335327,23.7827602 L38.5989105,20.7737852 L42.9210358,20.7737852 L44.0470275,23.7834487 Z M40.3274754,15.6302972 L40.7496331,13.4758161 L40.8501808,13.4758161 L41.2723386,15.6103292 L42.3177495,18.6399607 L39.3027445,18.6399607 L40.3274754,15.6302972 Z M56.2903155,23.7834487 L59.6875445,23.7834487 L55.0031622,17.3971232 L53.8778836,16.6397153 L54.9632284,15.9022755 L59.0635782,10.1948629 L55.9259192,10.1948629 L52.0459186,15.9408344 L51.4041247,16.2128127 L51.4041247,10.1948629 L48.6522552,10.1948629 L48.6522552,23.7834487 L51.4062641,23.7834487 L51.4062641,17.9796387 L52.1300649,17.9796387 L56.2903155,23.7834487 Z M61.6172048,23.7834487 L70.061073,23.7834487 L70.061073,21.4148277 L64.3719268,21.4148277 L64.3719268,18.0953156 L69.4577868,18.0953156 L69.4577868,15.7273831 L64.3719268,15.7273831 L64.3719268,12.5600411 L69.9605253,12.5600411 L69.9605253,10.1948629 L61.6172048,10.1948629 L61.6172048,23.7834487 Z M72.6139865,23.7834487 L75.3679953,23.7834487 L75.3679953,18.2123695 L76.8155971,18.4616256 L80.0124438,23.7806945 L83.1886104,23.7806945 L79.9717968,18.5993361 L78.9869998,17.9975411 C79.8484244,17.7503965 80.6032753,17.2395166 81.1377224,16.5419409 C81.704692,15.7445544 81.9870778,14.7904742 81.9421041,13.8242237 C81.9667635,13.1722055 81.8106862,12.5256533 81.4899959,11.9513606 C81.2005847,11.4650481 80.7846744,11.0601346 80.2834234,10.7766898 C79.7531208,10.4823561 79.1741113,10.2787598 78.571973,10.1748948 C77.9322777,10.0581163 77.2826439,9.99956215 76.6316162,10.0000025 C76.3506531,10.0000025 76.0418789,10.006888 75.7045806,10.0192819 C75.3672822,10.0316759 75.023566,10.0516439 74.6691531,10.0778089 C74.3147403,10.1039739 73.9560488,10.1390901 73.6037753,10.1845346 C73.2515017,10.229979 72.9163427,10.2788663 72.6054292,10.3298192 L72.6054292,23.7834487 L72.6139865,23.7834487 Z M78.4842612,12.8643813 C78.8699785,13.2190521 79.0755706,13.7189845 79.0469005,14.2325354 C79.110346,14.8627834 78.8561584,15.4840594 78.3637466,15.9022755 C77.8287823,16.262064 77.1849869,16.439638 76.5339209,16.4069846 L75.3679953,16.4069846 L75.3679953,12.4663979 C75.5757859,12.4197437 75.7879626,12.3936733 76.001232,12.3885915 C76.2757771,12.375509 76.5546009,12.369312 76.835564,12.369312 C77.4300449,12.3283318 78.0186972,12.5050918 78.4842612,12.8643813 L78.4842612,12.8643813 Z M86.0232001,16.5825655 L86.5459055,19.7499075 L88.1946027,19.7499075 L88.7165951,16.5825655 L88.7165951,10.1948629 L86.0232001,10.1948629 L86.0232001,16.5811884 L86.0232001,16.5825655 Z M86.1836485,23.5899654 C86.500851,23.8698808 86.9203042,24.0165273 87.3495741,23.9975886 C87.7917343,24.0209073 88.2254917,23.8743686 88.5561466,23.5899654 C88.8566772,23.3045883 89.0174156,22.9093179 88.9982713,22.5027409 C89.0186851,22.0987973 88.8575256,21.7060053 88.5561466,21.425156 C88.2225457,21.1465661 87.7899759,21.0038846 87.3495741,21.0271726 C86.9220397,21.0078631 86.5036242,21.1506873 86.1836485,21.425156 C85.8822695,21.7060053 85.72111,22.0987973 85.7415239,22.5027409 C85.7225847,22.9090821 85.8833071,23.3040627 86.1836485,23.5892769 L86.1836485,23.5899654 Z" id="Breaker_"></path>
        </g>
    </g>
</svg>