<svg width="93" height="63" viewBox="0 0 93 63" xmlns="http://www.w3.org/2000/svg"><title>93_63</title><path d="M6.702 25.515c-.17.096-.352.17-.542.22a2.887 2.887 0 0 1-.762.087 2.01 2.01 0 0 1-.848-.169c-.24-.108-.45-.27-.613-.471a2.003 2.003 0 0 1-.365-.731 3.472 3.472 0 0 1-.12-.948 2.586 2.586 0 0 1 .504-1.76 1.709 1.709 0 0 1 1.34-.568c.257-.003.513.013.768.048.189.026.373.078.546.154l.271-1.114a3.863 3.863 0 0 0-.687-.182 5.74 5.74 0 0 0-1.019-.077 3.715 3.715 0 0 0-1.124.178 2.77 2.77 0 0 0-1.018.586 3 3 0 0 0-.743 1.075 4.216 4.216 0 0 0-.288 1.657c-.014.55.072 1.097.255 1.618.145.405.38.775.688 1.085.279.273.62.48.998.605.386.126.791.189 1.2.187.341 0 .683-.032 1.018-.096.293-.048.572-.155.818-.314l-.277-1.07zm.632-.862h2.52v-1.105h-2.52v1.105zm8.4.864c-.17.096-.352.17-.542.22a2.887 2.887 0 0 1-.763.087 2.01 2.01 0 0 1-.848-.168c-.24-.11-.45-.27-.612-.472a2.003 2.003 0 0 1-.366-.73 3.472 3.472 0 0 1-.12-.949 2.586 2.586 0 0 1 .504-1.76 1.709 1.709 0 0 1 1.34-.568c.257-.003.514.014.768.048.189.026.373.078.547.154l.271-1.114a3.89 3.89 0 0 0-.688-.182 5.74 5.74 0 0 0-1.018-.077 3.715 3.715 0 0 0-1.124.178c-.38.122-.728.322-1.019.586-.326.303-.58.67-.742 1.075a4.216 4.216 0 0 0-.289 1.657c-.014.55.073 1.097.255 1.618.145.405.38.775.688 1.085.28.273.621.48.999.605.385.126.79.189 1.199.187.342 0 .683-.032 1.018-.096.293-.048.572-.155.818-.314l-.277-1.07zm.631-.864h2.52v-1.105h-2.52v1.105zm8.4.864c-.17.096-.352.17-.542.22a2.887 2.887 0 0 1-.763.087 2.01 2.01 0 0 1-.847-.168c-.24-.11-.45-.27-.613-.472a2.003 2.003 0 0 1-.366-.73 3.472 3.472 0 0 1-.12-.949 2.586 2.586 0 0 1 .505-1.76 1.709 1.709 0 0 1 1.34-.568 5.32 5.32 0 0 1 .767.048c.19.026.373.078.547.154l.271-1.114a3.89 3.89 0 0 0-.687-.182 5.74 5.74 0 0 0-1.019-.077 3.715 3.715 0 0 0-1.124.178c-.38.122-.728.322-1.019.586-.326.303-.579.67-.742 1.075a4.216 4.216 0 0 0-.289 1.657 4.53 4.53 0 0 0 .256 1.618c.145.405.38.775.687 1.085.28.273.621.48.999.605.386.126.791.189 1.199.187.342 0 .683-.032 1.019-.096a2.16 2.16 0 0 0 .818-.314l-.277-1.07zm1.01-.586c.105.4.29.774.547 1.105.243.307.562.55.928.71.417.175.87.26 1.325.25a2.746 2.746 0 0 0 2.202-.907c.565-.75.84-1.665.778-2.587a5.283 5.283 0 0 0-.18-1.43 3.05 3.05 0 0 0-.553-1.105 2.462 2.462 0 0 0-.933-.71 3.217 3.217 0 0 0-1.314-.25 2.741 2.741 0 0 0-2.208.907 3.872 3.872 0 0 0-.773 2.588c-.004.481.058.96.184 1.427l-.003.002zm1.668-3.194c.422-.56 1.219-.726 1.846-.384.199.124.361.294.472.494.128.232.217.482.265.74.06.3.088.606.086.911a3.05 3.05 0 0 1-.402 1.776 1.324 1.324 0 0 1-1.133.548 1.332 1.332 0 0 1-.693-.173 1.372 1.372 0 0 1-.477-.483 2.35 2.35 0 0 1-.275-.734 4.502 4.502 0 0 1-.09-.936 3.062 3.062 0 0 1 .4-1.76zm10.799 5.124h1.375v-6.723h-1.245l-1.776 3.053-.3.788h-.041l-.331-.768-1.876-3.073h-1.255v6.723h1.305v-3.497l-.201-1.325h.05l.442 1.066 1.576 2.515h.441l1.495-2.505.433-1.076h.06l-.15 1.335v3.487h-.002zm7.335-5.98a1.506 1.506 0 0 0-.587-.51 2.83 2.83 0 0 0-.833-.254 6.27 6.27 0 0 0-.958-.07 18.164 18.164 0 0 0-1.165.04 12.615 12.615 0 0 0-.963.105v6.627c.19.04.383.07.577.086a14.128 14.128 0 0 0 1.194.058h.433a4.43 4.43 0 0 0 1.014-.115c.312-.07.608-.19.878-.356a1.86 1.86 0 0 0 .617-.621c.16-.274.24-.584.23-.897a1.823 1.823 0 0 0-.115-.682 1.433 1.433 0 0 0-.316-.49 1.46 1.46 0 0 0-.464-.323 2.437 2.437 0 0 0-.572-.163v-.058c.208-.043.405-.123.582-.235.152-.098.285-.222.392-.365.1-.138.174-.293.216-.457.043-.163.065-.33.065-.499.01-.29-.068-.576-.225-.824v.002zm-2.525 4.97l-.26-.01c-.085 0-.163-.009-.237-.015a.644.644 0 0 1-.16-.028v-1.836h.732c.175 0 .349.01.522.029.164.016.324.06.472.128.137.064.254.16.34.28.096.148.141.32.131.494a.804.804 0 0 1-.11.428.941.941 0 0 1-.289.3 1.315 1.315 0 0 1-.416.176c-.16.038-.323.058-.487.057a127.54 127.54 0 0 1-.237-.008l-.001.004zm-.658-2.886v-1.781c.114-.015.227-.025.342-.028.144-.006.307-.01.482-.01.148 0 .296.012.441.038.133.023.26.068.376.133.11.063.201.151.266.257a.766.766 0 0 1 .1.409.738.738 0 0 1-.276.598 1.842 1.842 0 0 1-.657.345 2.992 2.992 0 0 1-.306.029c-.124.006-.232.01-.326.01h-.442zm4.817 1.964c.105.398.291.774.547 1.104.243.306.562.55.928.71.418.175.87.26 1.325.25a2.745 2.745 0 0 0 2.203-.907c.565-.75.84-1.664.777-2.587a5.312 5.312 0 0 0-.18-1.43 3.05 3.05 0 0 0-.552-1.104 2.47 2.47 0 0 0-.934-.71 3.215 3.215 0 0 0-1.314-.25 2.742 2.742 0 0 0-2.208.906 3.88 3.88 0 0 0-.772 2.588c-.006.482.055.963.18 1.43zm1.666-3.193c.422-.56 1.219-.726 1.846-.384.199.124.361.294.472.495.128.232.218.48.266.739.058.3.087.606.085.912a3.066 3.066 0 0 1-.4 1.776 1.325 1.325 0 0 1-1.135.547 1.332 1.332 0 0 1-.693-.172 1.364 1.364 0 0 1-.476-.484 2.335 2.335 0 0 1-.276-.734 4.552 4.552 0 0 1-.09-.936 3.062 3.062 0 0 1 .402-1.758h-.001zm-37.85 9.954a3.031 3.031 0 0 0-1.176-1.029 5.631 5.631 0 0 0-1.67-.514A12.463 12.463 0 0 0 6.263 30a36.163 36.163 0 0 0-2.332.078 23 23 0 0 0-1.93.214v13.393c.38.083.767.141 1.156.175a27.747 27.747 0 0 0 2.392.117h.875a8.795 8.795 0 0 0 2.03-.233 5.797 5.797 0 0 0 1.76-.718 3.745 3.745 0 0 0 1.236-1.252c.32-.554.48-1.181.462-1.815a3.73 3.73 0 0 0-.23-1.377 2.946 2.946 0 0 0-.634-.99 2.946 2.946 0 0 0-.945-.64 4.862 4.862 0 0 0-1.146-.33v-.119a3.49 3.49 0 0 0 1.166-.476c.306-.198.572-.448.785-.737.201-.28.348-.592.432-.922.087-.33.13-.67.131-1.01a2.94 2.94 0 0 0-.443-1.67zM5.971 41.736l-.523-.02a9.683 9.683 0 0 1-.472-.029 1.271 1.271 0 0 1-.319-.058v-3.708h1.468c.349 0 .698.02 1.045.058.328.033.648.12.945.26.274.129.51.324.683.566.19.3.281.648.262 1 .008.301-.069.6-.221.864a1.906 1.906 0 0 1-.584.605 2.614 2.614 0 0 1-.834.356 4.092 4.092 0 0 1-.975.115c-.136 0-.294-.003-.475-.01zm-1.314-5.834V32.31a6.42 6.42 0 0 1 .683-.057c.295-.013.617-.02.965-.02.297 0 .593.026.885.078.266.045.521.136.754.268.22.127.403.305.532.519.143.253.213.538.202.826a1.5 1.5 0 0 1-.553 1.21c-.385.315-.834.55-1.317.688a5.72 5.72 0 0 1-.614.058c-.248.013-.465.02-.653.02h-.884v.002zm9.727 7.881h2.752v-5.57l1.45.249 3.196 5.319h3.176l-3.216-5.182-.985-.601a4.147 4.147 0 0 0 2.151-1.456 4.342 4.342 0 0 0 .804-2.718 3.562 3.562 0 0 0-.452-1.873 3.28 3.28 0 0 0-1.203-1.174 5.416 5.416 0 0 0-1.712-.601 10.764 10.764 0 0 0-1.94-.175 29.086 29.086 0 0 0-1.962.078c-.355.026-.71.061-1.065.106s-.688.094-.999.146v13.452h.005zm5.87-10.919c.386.355.592.855.563 1.369a1.936 1.936 0 0 1-.683 1.67 3.011 3.011 0 0 1-1.83.504h-1.168v-3.94c.208-.047.42-.073.634-.078.274-.013.552-.02.834-.02a2.427 2.427 0 0 1 1.65.495zm6.735 10.92h8.443v-2.37h-5.689v-3.319h5.086v-2.368h-5.086V32.56h5.589v-2.365h-8.343v13.588zm19.058 0h2.894l-5.063-13.686h-2.033L36.78 43.783h2.755l1.065-3.01h4.322l1.126 3.01zm-3.72-8.154l.423-2.154h.1l.422 2.134 1.046 3.03h-3.015l1.024-3.01zm15.963 8.153h3.398l-4.685-6.386-1.125-.757 1.085-.738 4.1-5.707h-3.137l-3.88 5.746-.642.272v-6.018h-2.752v13.588h2.754V37.98h.724l4.16 5.803zm5.327 0h8.444v-2.368h-5.69v-3.32h5.087v-2.368h-5.086V32.56h5.589v-2.365h-8.344v13.588zm10.997 0h2.754v-5.57l1.448.249 3.196 5.319h3.177l-3.217-5.182-.985-.601a4.145 4.145 0 0 0 2.15-1.456c.568-.797.85-1.752.805-2.718a3.562 3.562 0 0 0-.452-1.873 3.28 3.28 0 0 0-1.207-1.174 5.429 5.429 0 0 0-1.711-.602c-.64-.117-1.29-.175-1.94-.175a28.043 28.043 0 0 0-1.962.078c-.355.026-.714.061-1.066.107-.352.045-.688.094-.999.145v13.453h.009zm5.87-10.919c.386.355.592.855.563 1.369.063.63-.19 1.251-.683 1.67a3.012 3.012 0 0 1-1.83.504h-1.166v-3.94c.208-.047.42-.073.633-.078a17.7 17.7 0 0 1 .835-.02 2.428 2.428 0 0 1 1.648.495zm7.54 3.719l.522 3.167h1.649l.522-3.167v-6.388h-2.694v6.388zm.16 7.007c.317.28.736.427 1.166.408.442.023.875-.124 1.206-.408.3-.285.461-.68.442-1.087.02-.404-.14-.797-.442-1.078a1.74 1.74 0 0 0-1.206-.398 1.676 1.676 0 0 0-1.166.398 1.374 1.374 0 0 0-.442 1.078 1.4 1.4 0 0 0 .442 1.086v.001z" fill="#FFF" fill-rule="evenodd"/></svg>