<svg width="17" height="17" viewBox="0 0 17 17" xmlns="http://www.w3.org/2000/svg"><title>0456D69C-7FA8-407C-BA48-18A62F728A9E</title><g fill="none" fill-rule="evenodd"><path d="M8.5 1.5a7 7 0 1 0 0 14 7 7 0 0 0 0-14z" stroke="#fff" fill="#003384"/><path d="M10 6.942c-.251-.106-1.18-.165-1.47-.165-.314 0-1.262.04-1.53.165L8.53 0c.002 0 .492 2.314 1.47 6.942zM7 10c.27.125 1.215.981 1.53.981.29 0 1.219-.875 1.47-.981l-1.47 7L7 10zm3 0c.115-.26.633-.82.633-1.121 0-.3-.52-1.68-.633-1.937L17 8.5 10 10zM7 7c-.117.261-.572 1.575-.572 1.879 0 .304.455.86.572 1.121L0 8.5c0-.002 2.333-.502 7-1.5zM2 2.5l.5-.5L5 4.5l-.5.5L2 2.5zM14.5 2l.5.5L12.5 5l-.5-.5L14.5 2zm.5 12.5l-.5.5-2.5-2.5.5-.5 2.5 2.5zM4.5 12l.5.5L2.5 15l-.5-.5L4.5 12z" fill="#fff"/></g></svg>